<svg xmlns="http://www.w3.org/2000/svg" width="24" height="24" viewBox="0 0 24 24">
  <g id="Expand" transform="translate(-700 -322)">
    <path id="Path_28488" data-name="Path 28488" d="M0,0H24V24H0Z" transform="translate(700 322)" fill="#37474f" opacity="0"/>
    <g id="Group_36441" data-name="Group 36441" transform="translate(704 325)">
      <g id="Group_36441-2" data-name="Group 36441" transform="translate(-2 -1)">
        <path id="Path_28481" data-name="Path 28481" d="M0,0V20H20V0ZM18.333,18.333H1.667V1.667H18.333Z" fill="#fff"/>
        <path id="Path_28482" data-name="Path 28482" d="M278.167,87h2.155l-2.744,2.744a.834.834,0,1,0,1.179,1.179l2.744-2.744v2.155a.833.833,0,0,0,1.667,0V86.085a.09.09,0,0,0-.005-.036c-.005-.012,0-.03-.007-.044a.155.155,0,0,1-.01-.041c0-.014-.006-.025-.01-.038s-.009-.026-.014-.04-.009-.025-.014-.037-.011-.024-.017-.036l-.018-.038a.384.384,0,0,0-.02-.034c-.007-.012-.014-.024-.022-.036L283,85.669l-.022-.03c-.017-.021-.036-.041-.055-.061h0a.82.82,0,0,0-.061-.055l-.03-.022-.036-.026-.036-.022-.034-.02-.038-.018-.036-.017-.037-.014-.04-.014-.038-.01-.041-.01-.044-.007-.037,0h-4.249a.834.834,0,0,0,0,1.667Z" transform="translate(-266.5 -82.001)" fill="#fff"/>
        <path id="Path_28483" data-name="Path 28483" d="M85.338,282.414a.1.1,0,0,0,0,.037c0,.012,0,.029.007.044a.174.174,0,0,1,.01.041c0,.013.006.025.01.038s.009.027.014.04.009.025.014.037.011.024.017.036l.018.038a.378.378,0,0,0,.02.034c.007.012.014.024.022.036l.026.036.022.03a.818.818,0,0,0,.055.061h0c.019.019.04.037.061.055l.03.022.036.026.036.022.034.02.038.018.036.017.037.014.04.014.038.01.041.01.044.007.036.005h4.249a.833.833,0,0,0,0-1.667H88.179l2.744-2.744a.833.833,0,0,0-1.179-1.178L87,280.32v-2.155a.834.834,0,0,0-1.667,0v4.167h0C85.334,282.36,85.335,282.387,85.338,282.414Z" transform="translate(-82.001 -266.498)" fill="#fff"/>
      </g>
    </g>
  </g>
</svg>
