<svg xmlns="http://www.w3.org/2000/svg" width="11.3" height="11.3" viewBox="0 0 11.3 11.3">
  <path id="External_Link" d="M15,4.367v3.3a.367.367,0,1,1-.733,0V5.252L9.026,10.493a.367.367,0,0,1-.518-.518l5.241-5.241H11.333a.367.367,0,1,1,0-.733h3.3A.366.366,0,0,1,15,4.367ZM13.533,13.9V9.5a.367.367,0,1,0-.733,0v4.4a.367.367,0,0,1-.367.367H5.1a.367.367,0,0,1-.367-.367V6.567A.367.367,0,0,1,5.1,6.2H9.5a.367.367,0,1,0,0-.733H5.1A1.1,1.1,0,0,0,4,6.567V13.9A1.1,1.1,0,0,0,5.1,15h7.333A1.1,1.1,0,0,0,13.533,13.9Z" transform="translate(-3.85 -3.85)" fill="#fff" stroke="#fff" stroke-width="0.3"/>
</svg>
