<svg xmlns="http://www.w3.org/2000/svg" width="24" height="24" viewBox="0 0 24 24">
  <g id="Logout" transform="translate(-750 -322)">
    <path id="Path_28490" data-name="Path 28490" d="M0,0H24V24H0Z" transform="translate(750 322)" fill="#37474f" opacity="0"/>
    <g id="Group_80" data-name="Group 80" transform="translate(753.006 323)">
      <path id="Path-103" d="M11.386,17.769a1,1,0,0,1-1-1v-9.7l-1.909,2a1.066,1.066,0,0,1-1.555,0,1.191,1.191,0,0,1,0-1.629l3.3-3.454a1.064,1.064,0,0,1,1.544-.012,1,1,0,0,1,.81.848l2.5,2.618a1.191,1.191,0,0,1,0,1.629,1.067,1.067,0,0,1-1.556,0l-.936-.98v8.686a1,1,0,0,1-1,1ZM16.5,15.227a1.056,1.056,0,0,1-1.1-1.043,1.1,1.1,0,0,1,1.1-1.091h1.1a2.2,2.2,0,0,0,2.3-2.086l-.042-6.779A2.213,2.213,0,0,0,17.6,2.08H4.4A2.24,2.24,0,0,0,2.113,4.228v6.779A2.216,2.216,0,0,0,4.4,13.127H5.5a1.051,1.051,0,1,1,0,2.1H4.4A4.263,4.263,0,0,1,0,11.007V4.228A4.27,4.27,0,0,1,4.4,0H17.6A4.381,4.381,0,0,1,22,4.362v6.645a4.263,4.263,0,0,1-4.4,4.22Z" transform="translate(17.769) rotate(90)" fill="#fff"/>
    </g>
  </g>
</svg>
