<svg id="minimize_2_" data-name="minimize (2)" xmlns="http://www.w3.org/2000/svg" width="502.56" height="502.561" viewBox="0 0 502.56 502.561">
  <g id="Group_36489" data-name="Group 36489">
    <g id="Group_36488" data-name="Group 36488">
      <path id="Path_43038" data-name="Path 43038" d="M171.36,148.8,22.72,0,0,22.72,148.8,171.36H75.36v32h112a16,16,0,0,0,16-16v-112h-32Z" fill="#fff"/>
      <path id="Path_43039" data-name="Path 43039" d="M315.36,203.36h112v-32H353.92L502.56,22.72,480,0,331.36,148.8V75.36h-32v112A16,16,0,0,0,315.36,203.36Z" fill="#fff"/>
      <path id="Path_43040" data-name="Path 43040" d="M427.36,331.36v-32h-112a16,16,0,0,0-16,16v112h32V353.92L480,502.56,502.56,480,353.92,331.36Z" fill="#fff"/>
      <path id="Path_43041" data-name="Path 43041" d="M187.36,299.36h-112v32H148.8L0,480l22.56,22.56,148.8-148.64v73.44h32v-112A16,16,0,0,0,187.36,299.36Z" fill="#fff"/>
    </g>
  </g>
</svg>
