<svg xmlns="http://www.w3.org/2000/svg" width="24" height="24" viewBox="0 0 24 24">
  <g id="Notification" transform="translate(-775 -322)">
    <path id="Path_28491" data-name="Path 28491" d="M0,0H24V24H0Z" transform="translate(775 322)" fill="#37474f" opacity="0"/>
    <path id="Shape" d="M9.8,22H9.444a4.157,4.157,0,0,1-4.1-4.031V17.6h-3.6A1.752,1.752,0,0,1,.135,16.484,1.837,1.837,0,0,1,.5,14.527l1.927-1.99V7.4A7.509,7.509,0,0,1,4.894,1.835,7.061,7.061,0,0,1,10.588.063a7.3,7.3,0,0,1,4.494,2.586A7.67,7.67,0,0,1,16.818,7.63v4.907l1.927,1.99a1.837,1.837,0,0,1,.37,1.958A1.752,1.752,0,0,1,17.5,17.6H13.9v.374A4.155,4.155,0,0,1,9.8,22Zm-.178-2.2h0c.048,0,.1,0,.144,0a2.032,2.032,0,0,0,2-1.832V17.6H7.484v.374a2.03,2.03,0,0,0,2,1.832,1.085,1.085,0,0,1,.141-.006ZM9.661,2.154a4.911,4.911,0,0,0-3.355,1.33A5.26,5.26,0,0,0,4.573,7.4v5.137A2.248,2.248,0,0,1,3.94,14.1L2.677,15.4h13.9L15.3,14.1a2.246,2.246,0,0,1-.621-1.562V7.587A5.333,5.333,0,0,0,10.309,2.2a4.878,4.878,0,0,0-.648-.046Z" transform="translate(777.002 323.001)" fill="#fff"/>
  </g>
</svg>
