<svg xmlns="http://www.w3.org/2000/svg" width="24" height="24" viewBox="0 0 24 24">
  <g id="Settings" transform="translate(-801 -322)">
    <path id="Path_28492" data-name="Path 28492" d="M0,0H24V24H0Z" transform="translate(801 322)" fill="#37474f" opacity="0"/>
    <path id="Shape" d="M8.056,22h0A10.943,10.943,0,0,1,3.29,19.14a3.515,3.515,0,0,0,.09-3.577A3.291,3.291,0,0,0,.521,13.851H.346a11.928,11.928,0,0,1,0-5.713H.518a3.289,3.289,0,0,0,2.86-1.7,3.515,3.515,0,0,0-.089-3.576A10.93,10.93,0,0,1,8.057,0,3.273,3.273,0,0,0,11,1.871,3.271,3.271,0,0,0,13.94,0a10.928,10.928,0,0,1,4.769,2.858,3.517,3.517,0,0,0-.09,3.579,3.288,3.288,0,0,0,2.855,1.71h.178a11.913,11.913,0,0,1,0,5.714h-.175a3.29,3.29,0,0,0-2.857,1.711,3.515,3.515,0,0,0,.089,3.576A10.929,10.929,0,0,1,13.941,22a3.248,3.248,0,0,0-5.884,0Zm2.938-4.153A5.381,5.381,0,0,1,14.668,19.3a8.865,8.865,0,0,0,1.427-.856,5.874,5.874,0,0,1,.62-4.022,5.531,5.531,0,0,1,3.048-2.568,9.684,9.684,0,0,0,0-1.713,5.533,5.533,0,0,1-3.049-2.568,5.871,5.871,0,0,1-.62-4.022A8.782,8.782,0,0,0,14.667,2.7,5.375,5.375,0,0,1,11,4.152h-.01A5.369,5.369,0,0,1,7.332,2.7,8.611,8.611,0,0,0,5.9,3.554a5.874,5.874,0,0,1-.621,4.022,5.526,5.526,0,0,1-3.047,2.568,9.684,9.684,0,0,0,0,1.713A5.526,5.526,0,0,1,5.28,14.425a5.9,5.9,0,0,1,.62,4.022,8.76,8.76,0,0,0,1.427.856A5.37,5.37,0,0,1,11,17.847Zm0-3.424A3.367,3.367,0,0,1,7.7,11,3.367,3.367,0,0,1,11,7.576,3.368,3.368,0,0,1,14.3,11,3.368,3.368,0,0,1,11,14.423Zm0-4.565A1.142,1.142,0,1,0,12.1,11,1.122,1.122,0,0,0,11,9.859Z" transform="translate(802.001 323)" fill="#fff"/>
  </g>
</svg>
