<svg xmlns="http://www.w3.org/2000/svg" width="19.447" height="20.71" viewBox="0 0 19.447 20.71">
  <g id="share_1_" data-name="share (1)" transform="translate(-15.75 0.25)">
    <g id="Group_36487" data-name="Group 36487" transform="translate(16)">
      <path id="Path_28490" data-name="Path 28490" d="M31.394,13.1a3.55,3.55,0,0,0-2.857,1.444L22.961,11.7a3.552,3.552,0,0,0-.115-2.334L28.69,5.853a3.538,3.538,0,1,0-.608-1.016l-5.859,3.52a3.552,3.552,0,1,0,.218,4.406L28,15.6a3.553,3.553,0,1,0,3.393-2.5Zm0-11.921a2.368,2.368,0,1,1-2.368,2.368A2.371,2.371,0,0,1,31.394,1.184ZM19.553,13.065A2.368,2.368,0,1,1,21.921,10.7,2.371,2.371,0,0,1,19.553,13.065Zm11.842,5.96a2.368,2.368,0,1,1,2.368-2.368A2.371,2.371,0,0,1,31.394,19.026Z" transform="translate(-16 0)" fill="#fff" stroke="#fff" stroke-width="0.5"/>
    </g>
  </g>
</svg>
