<svg xmlns="http://www.w3.org/2000/svg" width="34.841" height="32.916" viewBox="0 0 34.841 32.916">
  <g id="stats" transform="matrix(0.914, 0.407, -0.407, 0.914, 9.951, -0.643)">
    <path id="Path_28508" data-name="Path 28508" d="M24.524.7A3.033,3.033,0,0,0,22.61,6.091l-1.9,4.567a3.089,3.089,0,0,0-.312-.016,3.033,3.033,0,0,0-2.573,1.432l-6.708-2.2a3.034,3.034,0,1,0-5,2.377L3.412,18.421a2.954,2.954,0,0,0-.377-.026A3.043,3.043,0,1,0,5,19.12l2.712-6.167a3,3,0,0,0,2.95-1.4l6.708,2.2a3.034,3.034,0,1,0,4.945-2.423l1.9-4.567a3.094,3.094,0,0,0,.312.016,3.035,3.035,0,1,0,0-6.07Z" fill="#707070"/>
  </g>
</svg>
